<?xml version="1.0" encoding="UTF-8" standalone="no"?>
<svg
   id="Layer_2"
   data-name="Layer 2"
   viewBox="0 0 363.74999 156.28301"
   version="1.1"
   sodipodi:docname="host_logo_semicolor.svg"
   width="363.75"
   height="156.283"
   inkscape:version="1.4 (unknown)"
   xmlns:inkscape="http://www.inkscape.org/namespaces/inkscape"
   xmlns:sodipodi="http://sodipodi.sourceforge.net/DTD/sodipodi-0.dtd"
   xmlns="http://www.w3.org/2000/svg"
   xmlns:svg="http://www.w3.org/2000/svg">
  <sodipodi:namedview
     id="namedview97"
     pagecolor="#505050"
     bordercolor="#eeeeee"
     borderopacity="1"
     inkscape:showpageshadow="0"
     inkscape:pageopacity="0"
     inkscape:pagecheckerboard="0"
     inkscape:deskcolor="#505050"
     inkscape:zoom="1.6394713"
     inkscape:cx="246.42091"
     inkscape:cy="163.46734"
     inkscape:window-width="1720"
     inkscape:window-height="1371"
     inkscape:window-x="20"
     inkscape:window-y="20"
     inkscape:window-maximized="0"
     inkscape:current-layer="g97" />
  <defs
     id="defs1">
    <style
       id="style1">
      .cls-1 {
        fill: #fedd00;
      }

      .cls-2 {
        fill: #09a64b;
      }

      .cls-3, .cls-4 {
        fill: #fff;
      }

      .cls-3, .cls-5 {
        stroke: #fff;
        stroke-miterlimit: 10;
        stroke-width: .62px;
      }

      .cls-6 {
        fill: #3eb9eb;
      }

      .cls-5 {
        fill: none;
      }

      .cls-7 {
        fill: #e21e26;
      }

      .cls-8 {
        fill: #74ba58;
      }
    </style>
  </defs>
  <g
     id="Layer_1-2"
     data-name="Layer 1">
    <g
       id="g97">
      <path
         class="cls-1"
         d="m 7.2599997,67.355654 c -3.89,-0.34 -7.2599997,2.62 -7.2599997,6.42 v 6.39 c 0,3.21 2.4099997,5.96 5.6599997,6.39 8.7900003,1.15 16.4000003,4.93 21.3700003,10.219998 6.47,3.479998 10.69,9.129998 10.69,15.499998 0,7.21 -5.38,13.49 -13.31,16.74 -0.54,0.23 -1.09,0.35 -1.62,0.41 -4.64,3.33 -10.55,5.67 -17.1300003,6.53 -3.26,0.43 -5.6599997,3.18 -5.6599997,6.39 v 6.39 c 0,3.82 3.3699997,6.78 7.2599997,6.42 C 37.12,152.51565 60.35,133.82565 60.35,111.23565 60.35,88.645654 37.12,69.955654 7.2599997,67.315654 Z"
         id="path63" />
      <path
         class="cls-2"
         d="m 33.12,111.27565 c 0,-5.4 -2.26,-10.4 -6.1,-14.489998 -0.84,-0.45 -1.71,-0.86 -2.62,-1.24 -3.92,-1.619998 -8.24,1.23 -8.24,5.389998 v 22.73 c 0,3.58 3.23,6.19 6.64,5.8 6.36,-4.57 10.35,-11.03 10.35,-18.19 h -0.02 z"
         id="path64" />
      <path
         class="cls-1"
         d="m 37.71,112.29565 c 0,-6.37 -4.22,-12.02 -10.69,-15.509998 3.84,4.099998 6.1,9.089998 6.1,14.489998 0,7.15 -3.98,13.61 -10.35,18.19 0.54,-0.06 1.09,-0.2 1.62,-0.41 7.93,-3.27 13.31,-9.54 13.31,-16.74 h 0.01 z"
         id="path65" />
      <path
         class="cls-8"
         d="m 37.7,112.29565 c 0,-6.37 -4.22,-12.02 -10.69,-15.509998 3.84,4.099998 6.1,9.089998 6.1,14.489998 0,7.15 -3.98,13.61 -10.35,18.19 0.54,-0.06 1.09,-0.2 1.62,-0.41 7.93,-3.27 13.31,-9.54 13.31,-16.74 h 0.01 z"
         id="path66" />
      <path
         class="cls-2"
         d="m 95.839999,48.265654 v 5.64 c 0,2.23 1.55,4.13 3.71,4.63 20.610001,4.68 35.690001,19.8 35.690001,37.739998 0,17.939998 -15.08,33.049998 -35.690001,37.739998 -2.16,0.49 -3.71,2.4 -3.71,4.63 0,2.76 2.32,4.91 5.070001,4.73 32.28,-2.07 57.75,-23.66 57.75,-49.919996 0,-26.26 -25.47,-47.85 -57.75,-49.92 -2.730001,-0.18 -5.070001,1.98 -5.070001,4.73 z"
         id="path67" />
      <path
         class="cls-2"
         d="m 42.19,45.315654 c 0,-13.04 -7.01,-23.78 -25.11,-24.97 -1.87,-0.13 -3.32,-1.62 -3.32,-3.44 0,-1.82 -1.38,-3.27 -3.21,-3.44 -0.9600003,-0.09 -1.9200003,-0.16 -2.8900003,-0.21 -2.02,-0.11 -3.72,1.48 -3.72,3.46 v 9.43 c 0,1.64 1.18,3.03 2.82,3.38 10.8100003,2.29 24.1100003,4.32 24.1100003,18.21 0,10.92 -13.3,16.33 -24.1100003,18.62 -1.65,0.35 -2.82,1.74 -2.82,3.38 v 9.19 c 0,1.98 1.7,3.56 3.72,3.46 0.97,-0.05 1.93,-0.13 2.8900003,-0.21 1.82,-0.18 3.21,-1.65 3.21,-3.44 v -4.97 c 0,-1.83 1.46,-3.32 3.32,-3.44 18.09,-1.18 25.11,-11.94 25.11,-24.97 v 0 z"
         id="path68" />
      <path
         class="cls-7"
         d="m 6.5599997,5.3556538 v 4.9700002 c 0,1.98 1.43,3.69 3.43,4.08 20.7600003,4.07 35.9900003,17.48 35.9900003,33.39 0,15.91 -15.23,29.32 -35.9900003,33.39 -2,0.39 -3.43,2.09 -3.43,4.08 0,2.39 2.05,4.28 4.4900003,4.17 32.56,-1.63 58.34,-20.79 58.34,-44.12 0,-23.33 -25.78,-42.4900002 -58.34,-44.1200002 -2.4400003,-0.13 -4.4900003,1.78 -4.4900003,4.17 v 0 z"
         id="path69" />
      <path
         class="cls-6"
         d="m 48.94,47.445654 c 0,-15.86 -15.13,-29.23 -35.77,-33.35 -1.87,-0.38 -3.6300003,1.04 -3.6300003,2.91 0,1.57 1.2500003,2.87 2.8400003,2.96 18.32,1.03 29.77,11.85 29.77,25 0,13.15 -11.45,23.97 -29.77,25 -1.6,0.09 -2.8400003,1.39 -2.8400003,2.96 v 4.97 c 0,1.87 1.7600003,3.28 3.6300003,2.91 20.64,-4.12 35.77,-17.5 35.77,-33.35 v 0 z"
         id="path70" />
      <path
         class="cls-7"
         d="m 115.72,150.41565 -0.57,-6.63 c -0.21,-2.45 -2.09,-4.43 -4.58,-4.9 -20.79,-3.85 -37.1,-19.88 -38.85,-40.299998 -1.76,-20.429998 11.59,-38.899998 31.42,-46.079998 2.37,-0.85 3.89,-3.12 3.68,-5.57 v -0.16 c -0.29,-3.17 -3.28,-5.45 -6.49,-4.91 -31.48,5.39 -54.26,32.02 -51.69,61.859996 2.57,29.83 29.57,52.39 61.53,52.56 3.26,0.01 5.81,-2.72 5.54,-5.89 h 0.01 z"
         id="path71" />
      <path
         class="cls-4"
         d="m 97.199999,117.59565 c 1.06,-4.5 5.200001,-14.43 20.880001,-12.46 1.42,0.18 2.46,1.42 2.37,2.82 -0.32,4.62 -1.75,14.34 -8.07,16.03 -5.91,1.58 -11.23,-1.21 -13.830001,-2.99 -1.12,-0.76 -1.65,-2.1 -1.33,-3.39 h -0.01 z"
         id="path72" />
      <path
         class="cls-4"
         d="m 77.13,117.39565 c -2.05,-1.14 -5.44,-11.28 -3.46,-19.839998 0.25,-1.05 1.43,-1.57 2.37,-1.03 3.08,1.78 9.18,5.999998 10.65,12.309998 2,8.55 -6.77,10.11 -9.55,8.55 h -0.01 z"
         id="path73" />
      <path
         class="cls-4"
         d="m 85.47,86.555654 c -1.12,0.09 -2.09,-0.78 -2.15,-1.92 -0.2,-4.86 0.57,-17.01 12.999999,-20.4 6.090001,-1.67 13.460001,7.46 9.860001,14.65 -2.87,5.77 -15.74,7.29 -20.72,7.66 z"
         id="path74" />
      <path
         class="cls-4"
         d="m 131.9,94.235654 c 0,-5.27 -1.42,-15.12 -11.18,-20.13 -0.8,-0.41 -1.8,-0.14 -2.26,0.61 -1.5,2.44 -2.81,8.8 10.54,20.739998 1.11,0.99 2.89,0.24 2.89,-1.229998 z"
         id="path75"
         sodipodi:insensitive="true" />
      <path
         class="cls-1"
         d="m 162.05,90.125654 c 0,-26.41 -20.83,-48.74 -49.44,-56.01 -3.17,-0.8 -6.26,1.55 -6.26,4.76 0,2.54 1.99,4.68 4.59,4.88 25.63,1.95 45.78,20.11 45.78,42.16 0,22.049996 -20.14,40.199996 -45.78,42.159996 -2.59,0.2 -4.59,2.34 -4.59,4.88 v 8.4 c 0,3.21 3.09,5.56 6.26,4.76 28.61,-7.26 49.44,-29.59 49.44,-56.009996 v 0 z"
         id="path76"
         sodipodi:insensitive="true" />
      <path
         class="cls-7"
         d="m 153.7,84.705654 c 0,-18.21 -14.78,-33.59 -35.06,-38.56 -2.21,-0.54 -4.35,1.06 -4.35,3.28 0,1.78 1.41,3.24 3.23,3.38 18.14,1.34 32.39,13.84 32.39,29.02 0,15.179998 -14.26,27.679996 -32.39,29.019996 -1.82,0.14 -3.23,1.6 -3.23,3.38 v 5.79 c 0,2.22 2.15,3.82 4.35,3.28 20.28,-4.97 35.06,-20.36 35.06,-38.559996 z"
         id="path77" />
      <path
         class="cls-1"
         d="m 131.15,36.165654 -0.61,0.18 c -2.92,-1.68 -4.13,-5.35 -2.71,-8.19 L 140.88,4.2856538 c 0.96,-1.92 2.74,-3.72999996 4.7,-4.19999996 1.44,-0.35 2.89,0.4 3.63,1.74999996 0.37,0.66 0.85,1.25 1.4,1.74 2.1,1.8699998 1.65,5.2399998 0.35,7.8200002 l -11.82,20.89 c -1.07,2.14 -2.07,3.27 -3.73,2.98 -1.35,-0.23 -2.12,-0.14 -3.22,0.46 -0.34,0.19 -0.69,0.33 -1.06,0.44 z"
         id="path78" />
      <path
         class="cls-1"
         d="m 187.84,56.675654 0.4,0.24 c 0.6,2.4 -0.67,4.9 -2.84,5.56 l -18.74,5.02 c -1.46,0.45 -3.28,0.4 -4.5,-0.4 -0.9,-0.59 -1.25,-1.74 -0.92,-2.82 0.16,-0.53 0.21,-1.08 0.19,-1.63 -0.1,-2.05 1.86,-3.51 3.82,-4.12 l 12,-3.31 c 1.63,-0.5 3.97,-0.38 5.18,0.09 1.91,0.74 3.81,0.74 4.66,1.01 0.26,0.09 0.51,0.2 0.75,0.35 h 0.01 z"
         id="path79" />
      <path
         class="cls-1"
         d="m 147.56,49.105654 c 0.95,0.7 2.15,1.08 3.38,1.08 0.98,0 1.92,-0.25 2.73,-0.73 l -0.28,0.14 c 0.71,-0.36 1.27,-0.8 1.9,-1.47 l -0.16,0.18 -0.16,0.19 c 0.36,-0.35 0.72,-0.73 1.07,-1.08 0.31,-0.33 0.62,-0.64 0.95,-0.95 l 0.07,-0.08 c 1.11,-1.09 2.27,-2.22 3.44,-3.27 2.92,-2.63 5.39,-4.82 7.97,-7 1.86,-1.5 3.78,-2.92 5.75,-4.36 1.44,-1.05 2.3,-2.71 2.3,-4.45 0,-1.48 -0.64,-2.92 -1.74,-3.97 -1.1,-1.04 -2.62,-1.64 -4.18,-1.64 -1.56,0 -1.44,1.45 -2.76,2.35 -1.32,0.9 -3.02,1.28 -3.93,2.05 -1.22,1.05 -2.76,1.77 -3.97,2.88 l -1.28,1.16 c -2.81,2.54 -2.48,2.84 -5.19,5.55 -0.22,0.23 -3.84,4.05 -4.07,4.27 -0.72,0.71 -1.27,0.2 -1.98,0.95 -0.51,0.39 -0.92,0.86 -1.25,1.4 -0.11,0.2 -0.22,0.41 -0.34,0.65 -0.99,2.07 -0.25,4.7 1.7,6.12 h 0.01 z"
         id="path80" />
      <path
         class="cls-4"
         d="m 218.17,100.91 c 8.16,0.95 12.89,4.25 14.21,9.88 0.15,0.69 0.21,1.39 0.21,2.08 0,6.35 -5.43,13.45 -16.28,21.28 l 6.87,-1.55 c 2.53,-0.69 4.75,-1.04 6.66,-1.04 1.14,0 2.17,0.12 3.09,0.39 2.43,0.65 4.05,2.73 4.86,6.22 0.04,0.16 0.06,0.31 0.06,0.46 0,2.89 -6.67,4.82 -20.03,5.79 -1.71,0.15 -3.31,0.21 -4.76,0.21 -2.54,0 -4.74,-0.21 -6.6,-0.65 -2.91,-0.65 -4.67,-2.3 -5.26,-4.95 l -0.31,-1.31 c -0.02,-0.09 -0.02,-0.19 -0.02,-0.3 0,-1.8 2.97,-5.55 8.92,-11.26 7.26,-6.42 10.9,-11.11 10.9,-14.04 0,-0.24 -0.03,-0.46 -0.06,-0.69 l -0.09,-0.33 h -0.37 c -3.16,0 -7.47,1.09 -12.93,3.28 -2.99,-0.49 -4.71,-1.69 -5.18,-3.61 l -0.31,-1.34 c -0.06,-0.28 -0.09,-0.54 -0.09,-0.79 0,-3.16 4.69,-5.62 14.06,-7.43 l 2.47,-0.32 h -0.01 z"
         id="path81" />
      <path
         class="cls-4"
         d="m 260.76,100.71 c 0.29,-0.04 0.57,-0.05 0.86,-0.05 1.86,0 3.78,0.93 5.76,2.78 4.66,0 9.18,3.18 13.53,9.56 l 1.61,3.82 c 0.35,1.45 0.52,2.93 0.52,4.42 0,6.21 -3.04,12.81 -9.13,19.8 -5.65,5.1 -11.06,7.65 -16.23,7.65 -5.71,0 -10.68,-2.66 -14.89,-7.95 -1.42,-1.84 -2.46,-4.08 -3.09,-6.72 -0.44,-1.8 -0.65,-3.61 -0.65,-5.41 0,-7.01 3.26,-14.13 9.75,-21.37 4.42,-4.02 8.39,-6.21 11.95,-6.55 v 0.02 z m -9.47,33.33 c 1.1,2.57 2,3.86 2.72,3.86 h 1.09 c 3.55,0 7.27,-2.56 11.18,-7.68 2.78,-4.18 4.18,-7.93 4.18,-11.2 0,-0.85 -0.09,-1.68 -0.27,-2.48 l -0.15,-0.65 c -1.98,-4.02 -3.67,-6.04 -5.05,-6.04 h -1.09 c -5.64,3.32 -9.59,8.42 -11.86,15.29 -0.62,1.55 -0.92,3.43 -0.92,5.65 0,1.01 0.06,2.1 0.19,3.26 v 0 z"
         id="path82" />
      <path
         class="cls-4"
         d="m 311.01,99.83 c 4.5,0.75 7.05,2.34 7.65,4.79 l 0.15,0.62 c 0.06,0.24 0.09,0.49 0.09,0.74 0,2.66 -3.29,5.75 -9.88,9.26 -1.8,1.2 -2.69,1.94 -2.69,2.22 v 0.02 l 0.06,0.3 c 5.92,2.58 9.39,5.99 10.4,10.22 0.22,0.93 0.34,1.84 0.34,2.73 0,4.86 -3.29,9.26 -9.88,13.19 -2.78,0.85 -4.73,1.28 -5.82,1.28 -6.9,-0.59 -10.78,-2.71 -11.64,-6.36 l -0.15,-0.65 c -0.09,-0.32 -0.12,-0.62 -0.12,-0.9 0,-1.52 1.2,-2.38 3.59,-2.59 l 1.92,0.3 c 5.2,0 8.51,-2.23 9.94,-6.69 -0.41,-1.71 -5.13,-2.77 -14.14,-3.17 -2.53,-1.51 -3.95,-2.89 -4.24,-4.14 l -0.4,-1.59 c -0.02,-0.11 -0.02,-0.21 -0.02,-0.32 0,-2.05 4.34,-5.02 13.03,-8.91 -4.69,0.84 -8.09,1.25 -10.22,1.25 -0.35,0 -0.67,0 -0.96,-0.03 -3.88,-0.49 -6.12,-2 -6.75,-4.53 -0.06,-0.29 -0.09,-0.56 -0.09,-0.81 0,-2.89 4,-4.65 12.01,-5.25 10.41,-0.64 16.37,-0.95 17.82,-0.95 v 0 z"
         id="path83" />
      <path
         class="cls-4"
         d="m 341.07,100.71 c 0.29,-0.04 0.57,-0.05 0.86,-0.05 1.86,0 3.78,0.93 5.76,2.78 4.66,0 9.18,3.18 13.53,9.56 l 1.61,3.82 c 0.35,1.45 0.52,2.93 0.52,4.42 0,6.21 -3.04,12.81 -9.13,19.8 -5.65,5.1 -11.07,7.65 -16.23,7.65 -5.71,0 -10.68,-2.66 -14.89,-7.95 -1.42,-1.84 -2.46,-4.08 -3.09,-6.72 -0.44,-1.8 -0.65,-3.61 -0.65,-5.41 0,-7.01 3.26,-14.13 9.75,-21.37 4.42,-4.02 8.39,-6.21 11.95,-6.55 v 0.02 z m -9.47,33.33 c 1.1,2.57 1.99,3.86 2.72,3.86 h 1.08 c 3.55,0 7.27,-2.56 11.18,-7.68 2.78,-4.18 4.18,-7.93 4.18,-11.2 0,-0.85 -0.09,-1.68 -0.27,-2.48 l -0.15,-0.65 c -1.98,-4.02 -3.67,-6.04 -5.05,-6.04 h -1.09 c -5.64,3.32 -9.59,8.42 -11.86,15.29 -0.62,1.55 -0.92,3.43 -0.92,5.65 0,1.01 0.06,2.1 0.19,3.26 v 0 z"
         id="path84" />
      <path
         class="cls-4"
         d="m 226.82,8.63 h 0.92 c 3.17,0.36 5.04,1.72 5.6,4.08 l 0.14,0.54 c 0.01,0.08 0.02,0.15 0.02,0.24 0,1.5 -2.52,5.51 -7.56,12.01 -7.1,11.57 -10.65,17.73 -10.65,18.46 v 0.05 c -1.71,4.52 -3.73,6.79 -6.07,6.79 h -0.64 c -2.52,0 -4.43,-1.54 -5.74,-4.62 -0.04,-0.11 -0.05,-0.24 -0.05,-0.4 0,-1.93 2.21,-6.79 6.64,-14.57 -4.14,-2.71 -7.28,-8.5 -9.43,-17.41 0.19,-1.15 0.82,-1.97 1.87,-2.44 h 1.85 c 2.32,0 4.66,2.91 7.02,8.72 1.27,2.18 2.05,3.27 2.32,3.27 3.24,-2.92 6.64,-7.19 10.17,-12.8 1.48,-1.25 2.67,-1.89 3.57,-1.89 z"
         id="path85" />
      <path
         class="cls-4"
         d="m 245.76,7 h 1.53 c 3.67,0.6 5.95,2.78 6.85,6.53 0.47,1.98 0.71,5.92 0.71,11.86 0,1.98 -0.02,4.17 -0.07,6.58 3.11,0.06 4.89,1.1 5.36,3.12 0.11,0.39 0.16,0.81 0.16,1.27 -0.04,2.86 -1.71,4.5 -5.01,4.92 0.01,0.38 0.03,0.74 0.03,1.1 0,3.81 -1.42,5.71 -4.25,5.71 -2.83,0 -5.14,-2.27 -6.81,-6.79 -2.39,0.33 -6.67,0.59 -12.81,0.79 -0.94,2.37 -2.18,3.54 -3.75,3.54 h -0.64 c -1.92,-0.25 -3.04,-1.07 -3.38,-2.44 l -0.19,-0.81 c 0.97,-6.63 5.55,-16.14 13.77,-28.58 3.5,-4.52 6.35,-6.79 8.53,-6.79 h -0.02 z m -10.1,25.83 0.05,0.28 c 2.66,-0.36 5.45,-0.7 8.37,-1.05 0.26,-0.31 0.4,-1.69 0.4,-4.15 0,-2 -0.09,-4.72 -0.26,-8.14 -2.96,3.39 -5.81,7.74 -8.56,13.05 v 0 z"
         id="path86" />
      <path
         class="cls-4"
         d="m 274.42,8 c 2.38,0.48 3.75,1.48 4.12,2.98 l 0.19,0.81 c 0.07,0.28 0.1,0.66 0.1,1.16 0,2.13 -0.61,6.34 -1.82,12.61 -1.5,7.77 -2.32,12.2 -2.48,13.29 6.46,-0.59 10.65,-0.89 12.57,-0.89 2.47,0 3.89,0.81 4.28,2.44 l 0.08,0.28 c -0.14,3.66 -6.56,7.01 -19.26,10.07 -1.02,0.19 -1.61,0.28 -1.77,0.28 -4.05,-0.59 -6.4,-2.23 -7.06,-4.9 l -0.19,-0.81 c -0.17,-0.72 -0.26,-1.66 -0.26,-2.82 0,-2.96 0.59,-7.28 1.77,-12.96 1.62,-7.92 3.16,-13.48 4.6,-16.71 1.45,-3.22 3.16,-4.85 5.13,-4.86 v 0.02 z"
         id="path87" />
      <path
         class="cls-4"
         d="m 305.6,8 c 2.38,0.48 3.75,1.48 4.12,2.98 l 0.19,0.81 c 0.08,0.28 0.1,0.66 0.1,1.16 0,2.13 -0.61,6.34 -1.82,12.61 -1.5,7.77 -2.32,12.2 -2.48,13.29 6.46,-0.59 10.65,-0.89 12.57,-0.89 2.47,0 3.89,0.81 4.28,2.44 l 0.08,0.28 c -0.14,3.66 -6.56,7.01 -19.26,10.07 -1.02,0.19 -1.61,0.28 -1.77,0.28 -4.05,-0.59 -6.4,-2.23 -7.06,-4.9 l -0.19,-0.81 c -0.17,-0.72 -0.26,-1.66 -0.26,-2.82 0,-2.96 0.59,-7.28 1.77,-12.96 1.62,-7.92 3.15,-13.48 4.6,-16.71 1.45,-3.22 3.16,-4.85 5.13,-4.86 v 0.02 z"
         id="path88" />
      <path
         class="cls-4"
         d="m 347.58,7 h 1.54 c 3.67,0.6 5.95,2.78 6.85,6.53 0.47,1.98 0.71,5.92 0.71,11.86 0,1.98 -0.02,4.17 -0.08,6.58 3.11,0.06 4.89,1.1 5.37,3.12 0.11,0.39 0.16,0.81 0.16,1.27 -0.04,2.86 -1.71,4.5 -5.01,4.92 0.01,0.38 0.02,0.74 0.02,1.1 0,3.81 -1.42,5.71 -4.25,5.71 -2.83,0 -5.14,-2.27 -6.81,-6.79 -2.39,0.33 -6.67,0.59 -12.81,0.79 -0.94,2.37 -2.18,3.54 -3.75,3.54 h -0.64 c -1.92,-0.25 -3.04,-1.07 -3.38,-2.44 l -0.19,-0.81 c 0.97,-6.63 5.55,-16.14 13.77,-28.58 3.51,-4.52 6.35,-6.79 8.53,-6.79 h -0.02 z m -10.09,25.83 0.05,0.28 c 2.66,-0.36 5.45,-0.7 8.37,-1.05 0.26,-0.31 0.4,-1.69 0.4,-4.15 0,-2 -0.09,-4.72 -0.26,-8.14 -2.96,3.39 -5.81,7.74 -8.56,13.05 v 0 z"
         id="path89" />
      <path
         class="cls-4"
         d="m 226.84,61.73 c 1.56,0 2.77,0.9 3.63,2.71 0.01,0.1 0.02,0.2 0.02,0.31 0,2.67 -5.66,12.34 -16.98,28.98 -1.3,0.88 -2.53,1.37 -3.73,1.48 -2.96,0 -5.05,-1.64 -6.27,-4.93 l -0.05,-0.23 c -0.59,-2.28 -1.52,-10.97 -2.79,-26.09 0.67,-1.15 1.5,-1.73 2.49,-1.73 h 0.57 c 2.47,0 4.48,2.13 6.05,6.39 l 1.48,9.37 7.66,-10.33 c 3.36,-3.93 6,-5.91 7.91,-5.91 v 0 z"
         id="path90" />
      <path
         class="cls-4"
         d="m 244.29,56.57 h 1.46 c 3.49,0.55 5.66,2.52 6.52,5.91 0.45,1.79 0.69,5.36 0.69,10.73 0,1.79 -0.02,3.77 -0.07,5.95 2.96,0.06 4.66,1 5.11,2.83 0.1,0.35 0.15,0.73 0.15,1.14 -0.04,2.59 -1.63,4.07 -4.79,4.45 0.01,0.34 0.03,0.66 0.03,0.99 0,3.44 -1.35,5.17 -4.05,5.17 -2.7,0 -4.9,-2.04 -6.5,-6.14 -2.28,0.3 -6.36,0.54 -12.22,0.71 -0.89,2.14 -2.08,3.21 -3.58,3.21 h -0.6 c -1.83,-0.22 -2.91,-0.96 -3.23,-2.22 l -0.17,-0.74 c 0.92,-5.99 5.3,-14.62 13.12,-25.86 3.34,-4.1 6.05,-6.14 8.13,-6.14 h 0.01 z m -9.63,23.37 0.05,0.25 c 2.53,-0.33 5.2,-0.64 7.98,-0.95 0.25,-0.28 0.37,-1.53 0.37,-3.76 0,-1.82 -0.09,-4.27 -0.25,-7.36 -2.82,3.07 -5.54,7 -8.16,11.81 v 0 z"
         id="path91" />
      <path
         class="cls-4"
         d="m 293.88,57.28 c 3.88,0.6 6.14,2.17 6.77,4.69 0.09,0.32 0.12,0.9 0.12,1.73 0,3.24 -0.63,10.38 -1.91,21.4 0.1,1.05 0.15,2.03 0.15,2.93 0,4.93 -1.53,7.4 -4.59,7.4 h -0.28 c -2.37,0 -4.14,-1.56 -5.31,-4.68 -0.06,-1 -0.1,-2.18 -0.1,-3.54 0,-2.92 0.42,-7.85 1.29,-14.78 -3.79,7.46 -6.95,11.37 -9.47,11.71 -0.24,0.04 -0.47,0.06 -0.71,0.06 -2.2,0 -4.05,-1.5 -5.56,-4.51 -0.77,-2.45 -1.37,-4.17 -1.81,-5.15 l -4.79,19.67 c -1.02,0.65 -1.91,0.97 -2.67,0.97 -1.81,0 -3.19,-1.14 -4.13,-3.43 -0.14,-0.55 -0.2,-1.24 -0.2,-2.09 0,-4.44 1.95,-12.94 5.85,-25.47 1.5,-3.12 3.36,-4.68 5.56,-4.68 h 0.6 c 3.53,0 6.15,3.37 7.86,10.11 0.19,0 1.72,-2.05 4.61,-6.16 3.55,-3.98 6.46,-6.03 8.72,-6.16 h -0.01 z"
         id="path92" />
      <path
         class="cls-4"
         d="m 319.74,59.13 c 0.24,-0.02 0.47,-0.04 0.71,-0.04 1.51,0 3.07,0.71 4.69,2.16 3.79,0 7.46,2.45 11.01,7.38 l 1.31,2.96 c 0.29,1.13 0.42,2.27 0.42,3.42 0,4.8 -2.48,9.9 -7.44,15.29 -4.6,3.93 -9.01,5.91 -13.2,5.91 -4.65,0 -8.69,-2.04 -12.12,-6.14 -1.16,-1.41 -2,-3.16 -2.52,-5.19 -0.35,-1.39 -0.52,-2.78 -0.52,-4.17 0,-5.41 2.64,-10.91 7.93,-16.5 3.59,-3.11 6.84,-4.8 9.73,-5.06 v -0.03 z m -7.71,25.74 c 0.89,1.98 1.64,2.97 2.22,2.97 h 0.89 c 2.89,0 5.92,-1.98 9.09,-5.92 2.27,-3.23 3.41,-6.11 3.41,-8.64 0,-0.66 -0.08,-1.3 -0.22,-1.92 l -0.12,-0.5 c -1.61,-3.11 -2.98,-4.66 -4.1,-4.66 h -0.89 c -4.59,2.56 -7.8,6.5 -9.65,11.81 -0.5,1.19 -0.76,2.65 -0.76,4.37 0,0.79 0.05,1.63 0.15,2.5 v 0 z"
         id="path93" />
      <path
         class="cls-4"
         d="m 347.57,57.64 c 1.88,-0.39 3.62,-0.59 5.21,-0.59 3.88,0 6.95,1.16 9.19,3.51 1.2,1.44 1.78,2.75 1.78,3.94 0,0.38 -0.06,0.75 -0.18,1.11 -0.54,1.48 -1.85,2.26 -3.93,2.34 -0.71,-0.05 -1.52,-0.35 -2.45,-0.88 -0.92,-0.52 -2.19,-0.93 -3.83,-1.19 -0.27,-0.04 -0.55,-0.06 -0.86,-0.06 -1.41,0 -2.96,0.54 -4.64,1.63 8.92,5.96 13.87,10.88 14.87,14.77 0.2,0.8 0.3,1.58 0.3,2.34 0,4 -2.89,7.24 -8.69,9.72 -1.11,0.49 -2.68,0.83 -4.74,0.99 -5.68,0 -9.4,-1.57 -11.19,-4.69 l -0.12,-0.49 c -0.04,-0.14 -0.05,-0.28 -0.05,-0.42 0,-1.21 0.86,-1.82 2.59,-1.82 0.21,0 0.45,0 0.71,0.02 0.48,0.04 0.95,0.06 1.44,0.06 1.81,0 3.78,-0.26 5.9,-0.78 2.68,-0.65 4.03,-2 4.03,-4.1 0,-0.2 -0.02,-0.4 -0.07,-0.61 l -0.2,-0.74 c -0.3,-1.21 -4.15,-4.41 -11.54,-9.6 -1.52,-1.35 -2.52,-2.9 -2.97,-4.68 -0.14,-0.54 -0.2,-1.05 -0.2,-1.57 0,-4.13 3.21,-6.89 9.63,-8.24 z"
         id="path94" />
    </g>
  </g>
</svg>
