<?xml version="1.0" encoding="UTF-8" standalone="no"?>
<svg
   id="Layer_2"
   data-name="Layer 2"
   viewBox="0 0 363.74999 156.28301"
   version="1.1"
   sodipodi:docname="host_logo_white.svg"
   width="363.75"
   height="156.283"
   inkscape:version="1.4 (unknown)"
   xmlns:inkscape="http://www.inkscape.org/namespaces/inkscape"
   xmlns:sodipodi="http://sodipodi.sourceforge.net/DTD/sodipodi-0.dtd"
   xmlns="http://www.w3.org/2000/svg"
   xmlns:svg="http://www.w3.org/2000/svg">
  <sodipodi:namedview
     id="namedview97"
     pagecolor="#505050"
     bordercolor="#eeeeee"
     borderopacity="1"
     inkscape:showpageshadow="0"
     inkscape:pageopacity="0"
     inkscape:pagecheckerboard="0"
     inkscape:deskcolor="#505050"
     inkscape:zoom="1.4142136"
     inkscape:cx="191.27238"
     inkscape:cy="275.06454"
     inkscape:window-width="1720"
     inkscape:window-height="1371"
     inkscape:window-x="20"
     inkscape:window-y="20"
     inkscape:window-maximized="0"
     inkscape:current-layer="g97" />
  <defs
     id="defs1">
    <style
       id="style1">
      .cls-1, .cls-2 {
        fill: #fff;
      }

      .cls-1, .cls-3 {
        stroke: #fff;
        stroke-miterlimit: 10;
        stroke-width: .62px;
      }

      .cls-3 {
        fill: none;
      }
    </style>
  </defs>
  <g
     id="g97">
    <g
       id="g18"
       transform="translate(-124.24,-24.097115)">
      <path
         class="cls-2"
         d="m 131.55,91.44 c -3.92,-0.34 -7.3,2.61 -7.3,6.44 v 6.38 c 0,3.21 2.41,5.97 5.69,6.4 8.82,1.15 16.47,4.93 21.46,10.22 6.5,3.49 10.73,9.12 10.73,15.51 0,7.21 -5.39,13.48 -13.37,16.75 -0.54,0.22 -1.08,0.35 -1.63,0.42 -4.66,3.34 -10.6,5.67 -17.2,6.53 -3.28,0.43 -5.69,3.19 -5.69,6.4 v 6.38 c 0,3.81 3.38,6.77 7.3,6.44 29.98,-2.64 53.31,-21.33 53.31,-43.92 0,-22.59 -23.31,-41.29 -53.3,-43.93 z"
         id="path1" />
      <path
         class="cls-2"
         d="m 157.52,135.37 c 0,-5.39 -2.27,-10.39 -6.14,-14.49 -0.85,-0.46 -1.72,-0.86 -2.64,-1.24 -3.93,-1.62 -8.29,1.23 -8.29,5.38 v 22.74 c 0,3.58 3.24,6.19 6.66,5.8 6.4,-4.57 10.39,-11.03 10.39,-18.18 h 0.01 z"
         id="path2" />
      <path
         class="cls-2"
         d="m 162.12,136.38 c 0,-6.38 -4.23,-12.04 -10.73,-15.51 3.86,4.1 6.14,9.1 6.14,14.49 0,7.15 -3.99,13.61 -10.39,18.18 0.55,-0.07 1.08,-0.2 1.63,-0.42 7.98,-3.26 13.37,-9.54 13.37,-16.75 h -0.01 z"
         id="path3" />
      <path
         d="m 162.12,136.38 c 0,-6.38 -4.23,-12.04 -10.73,-15.51 3.86,4.1 6.14,9.1 6.14,14.49 0,7.15 -3.99,13.61 -10.39,18.18 0.55,-0.07 1.08,-0.2 1.63,-0.42 7.98,-3.26 13.37,-9.54 13.37,-16.75 h -0.01 z"
         id="path4" />
      <path
         class="cls-2"
         d="m 220.49,72.34 v 5.64 c 0,2.22 1.55,4.14 3.72,4.63 20.69,4.69 35.84,19.8 35.84,37.74 0,17.94 -15.15,33.05 -35.84,37.74 -2.17,0.5 -3.72,2.4 -3.72,4.63 0,2.75 2.34,4.91 5.08,4.74 32.41,-2.06 58,-23.67 58,-49.92 0,-26.25 -25.58,-47.85 -58,-49.92 -2.74,-0.17 -5.08,1.98 -5.08,4.74 v -0.03 z"
         id="path5" />
      <path
         class="cls-2"
         d="m 166.63,69.4 c 0,-13.04 -7.04,-23.8 -25.21,-24.97 -1.88,-0.12 -3.34,-1.62 -3.34,-3.45 0,-1.83 -1.4,-3.28 -3.22,-3.45 -0.97,-0.09 -1.93,-0.16 -2.9,-0.21 -2.04,-0.1 -3.73,1.48 -3.73,3.46 v 9.44 c 0,1.64 1.19,3.03 2.83,3.38 10.86,2.28 24.21,4.32 24.21,18.21 0,10.93 -13.35,16.34 -24.21,18.63 -1.64,0.35 -2.83,1.74 -2.83,3.38 v 9.19 c 0,1.98 1.71,3.56 3.73,3.46 0.98,-0.05 1.94,-0.12 2.9,-0.21 1.83,-0.17 3.22,-1.66 3.22,-3.45 v -4.97 c 0,-1.83 1.46,-3.33 3.34,-3.45 18.17,-1.19 25.21,-11.93 25.21,-24.97 v -0.03 z"
         id="path6" />
      <path
         class="cls-2"
         d="m 130.84,29.43 v 4.97 c 0,1.98 1.44,3.69 3.45,4.09 20.85,4.07 36.13,17.48 36.13,33.39 0,15.91 -15.3,29.32 -36.13,33.39 -2,0.39 -3.45,2.1 -3.45,4.09 0,2.39 2.06,4.28 4.52,4.16 32.7,-1.63 58.58,-20.79 58.58,-44.13 0,-23.34 -25.89,-42.49 -58.58,-44.12 -2.45,-0.12 -4.52,1.78 -4.52,4.16 z"
         id="path7" />
      <path
         d="m 173.41,71.53 c 0,-15.86 -15.19,-29.23 -35.92,-33.35 -1.88,-0.38 -3.65,1.03 -3.65,2.91 0,1.57 1.25,2.86 2.86,2.95 18.39,1.03 29.89,11.85 29.89,25 0,13.15 -11.5,23.98 -29.89,25 -1.61,0.09 -2.86,1.38 -2.86,2.95 v 4.97 c 0,1.87 1.76,3.28 3.65,2.91 20.74,-4.12 35.92,-17.49 35.92,-33.35 v 0 z"
         id="path8" />
      <path
         class="cls-2"
         d="m 240.46,174.51 -0.57,-6.63 c -0.21,-2.45 -2.11,-4.44 -4.61,-4.9 -20.87,-3.84 -37.25,-19.88 -39.02,-40.31 -1.76,-20.43 11.63,-38.9 31.55,-46.08 2.38,-0.86 3.92,-3.12 3.69,-5.57 v -0.16 c -0.29,-3.17 -3.29,-5.46 -6.51,-4.91 -31.62,5.39 -54.49,32.02 -51.9,61.86 2.57,29.84 29.7,52.4 61.78,52.57 3.26,0.01 5.83,-2.73 5.56,-5.89 h 0.03 z"
         id="path9" />
      <path
         class="cls-2"
         d="m 221.86,141.7 c 1.07,-4.49 5.22,-14.44 20.96,-12.47 1.44,0.18 2.47,1.42 2.38,2.82 -0.33,4.62 -1.75,14.35 -8.11,16.04 -5.93,1.58 -11.28,-1.21 -13.89,-2.99 -1.12,-0.76 -1.64,-2.1 -1.34,-3.39 v 0 z"
         id="path10" />
      <path
         class="cls-2"
         d="m 201.71,141.48 c -2.05,-1.14 -5.47,-11.28 -3.47,-19.84 0.25,-1.06 1.44,-1.57 2.38,-1.03 3.09,1.78 9.22,5.99 10.69,12.32 2,8.55 -6.8,10.1 -9.59,8.55 z"
         id="path11" />
      <path
         class="cls-2"
         d="m 210.09,110.64 c -1.14,0.08 -2.1,-0.78 -2.15,-1.91 -0.21,-4.86 0.57,-17.01 13.04,-20.4 6.11,-1.67 13.51,7.47 9.91,14.66 -2.88,5.77 -15.81,7.28 -20.81,7.66 h 0.01 z"
         id="path12" />
      <path
         class="cls-2"
         d="m 256.72,118.32 c 0,-5.27 -1.44,-15.12 -11.23,-20.13 -0.8,-0.4 -1.8,-0.13 -2.27,0.61 -1.51,2.44 -2.82,8.8 10.59,20.74 1.11,0.99 2.9,0.23 2.9,-1.23 h 0.01 z"
         id="path13" />
      <path
         class="cls-2"
         d="m 286.99,114.2 c 0,-26.42 -20.92,-48.75 -49.66,-56.01 -3.19,-0.81 -6.29,1.55 -6.29,4.76 0,2.55 2,4.69 4.61,4.9 25.74,1.96 45.97,20.12 45.97,42.16 0,22.04 -20.23,40.2 -45.97,42.16 -2.61,0.2 -4.61,2.35 -4.61,4.89 v 8.41 c 0,3.2 3.11,5.56 6.29,4.76 28.73,-7.26 49.66,-29.59 49.66,-56.01 v -0.03 z"
         id="path14" />
      <path
         d="m 278.61,108.79 c 0,-18.21 -14.84,-33.6 -35.21,-38.57 -2.22,-0.54 -4.36,1.06 -4.36,3.28 0,1.78 1.41,3.25 3.24,3.38 18.21,1.34 32.53,13.84 32.53,29.02 0,15.18 -14.32,27.69 -32.53,29.02 -1.83,0.13 -3.24,1.59 -3.24,3.38 v 5.78 c 0,2.22 2.15,3.82 4.36,3.28 20.36,-4.97 35.21,-20.36 35.21,-38.57 z"
         id="path15" />
      <path
         class="cls-2"
         d="m 255.96,60.26 -0.61,0.18 c -2.92,-1.68 -4.14,-5.35 -2.71,-8.2 l 13.11,-23.87 c 0.97,-1.92 2.75,-3.73 4.73,-4.19 1.44,-0.34 2.9,0.39 3.65,1.75 0.37,0.67 0.85,1.25 1.41,1.74 2.11,1.87 1.66,5.23 0.35,7.82 l -11.87,20.9 c -1.07,2.14 -2.08,3.26 -3.75,2.99 -1.36,-0.23 -2.13,-0.14 -3.24,0.47 -0.34,0.18 -0.69,0.33 -1.06,0.43 h -0.01 z"
         id="path16" />
      <path
         class="cls-2"
         d="m 312.89,80.75 0.4,0.23 c 0.6,2.4 -0.68,4.9 -2.86,5.56 l -18.82,5.03 c -1.46,0.44 -3.29,0.4 -4.52,-0.4 -0.9,-0.59 -1.24,-1.74 -0.93,-2.82 0.16,-0.54 0.22,-1.08 0.2,-1.62 -0.1,-2.06 1.87,-3.51 3.84,-4.11 l 12.05,-3.32 c 1.63,-0.5 3.98,-0.38 5.2,0.09 1.92,0.73 3.82,0.73 4.69,1.02 0.26,0.09 0.51,0.21 0.76,0.35 v 0 z"
         id="path17" />
      <path
         class="cls-2"
         d="m 272.45,73.19 c 0.95,0.69 2.15,1.08 3.39,1.08 0.98,0 1.93,-0.25 2.75,-0.72 l -0.27,0.13 c 0.72,-0.37 1.28,-0.8 1.91,-1.46 l -0.16,0.17 -0.17,0.18 c 0.37,-0.35 0.73,-0.72 1.08,-1.08 0.31,-0.33 0.63,-0.64 0.95,-0.95 L 282,70.47 c 1.12,-1.08 2.27,-2.21 3.46,-3.28 2.94,-2.64 5.42,-4.83 8,-7 1.87,-1.5 3.8,-2.92 5.78,-4.36 1.45,-1.04 2.31,-2.7 2.31,-4.44 0,-1.48 -0.64,-2.92 -1.74,-3.97 -1.11,-1.04 -2.64,-1.64 -4.2,-1.64 -1.56,0 -1.45,1.45 -2.77,2.35 -1.28,0.86 -3.03,1.28 -3.94,2.06 -1.23,1.04 -2.77,1.78 -3.98,2.87 l -1.29,1.16 c -2.82,2.55 -2.49,2.83 -5.22,5.55 -0.22,0.22 -3.86,4.05 -4.09,4.27 -0.72,0.72 -1.28,0.2 -1.98,0.95 -0.51,0.39 -0.93,0.86 -1.25,1.4 -0.12,0.2 -0.23,0.42 -0.34,0.65 -0.99,2.06 -0.25,4.7 1.7,6.12 v 0 z"
         id="path18" />
    </g>
    <path
       class="cls-2"
       d="m 218.17,100.91 c 8.16,0.95 12.89,4.25 14.21,9.88 0.15,0.69 0.21,1.39 0.21,2.08 0,6.35 -5.43,13.45 -16.28,21.28 l 6.87,-1.55 c 2.53,-0.69 4.75,-1.04 6.66,-1.04 1.14,0 2.17,0.12 3.09,0.39 2.43,0.65 4.05,2.73 4.86,6.22 0.04,0.16 0.06,0.31 0.06,0.46 0,2.89 -6.67,4.82 -20.03,5.79 -1.71,0.15 -3.31,0.21 -4.76,0.21 -2.54,0 -4.74,-0.21 -6.6,-0.65 -2.91,-0.65 -4.67,-2.3 -5.26,-4.95 l -0.31,-1.31 c -0.02,-0.09 -0.02,-0.19 -0.02,-0.3 0,-1.8 2.97,-5.55 8.92,-11.26 7.26,-6.42 10.9,-11.11 10.9,-14.04 0,-0.24 -0.03,-0.46 -0.06,-0.69 l -0.09,-0.33 h -0.37 c -3.16,0 -7.47,1.09 -12.93,3.28 -2.99,-0.49 -4.71,-1.69 -5.18,-3.61 l -0.31,-1.34 c -0.06,-0.28 -0.09,-0.54 -0.09,-0.79 0,-3.16 4.69,-5.62 14.06,-7.43 l 2.47,-0.32 h -0.01 z"
       id="path81" />
    <path
       class="cls-2"
       d="m 260.76,100.71 c 0.29,-0.04 0.57,-0.05 0.86,-0.05 1.86,0 3.78,0.93 5.76,2.78 4.66,0 9.18,3.18 13.53,9.56 l 1.61,3.82 c 0.35,1.45 0.52,2.93 0.52,4.42 0,6.21 -3.04,12.81 -9.13,19.8 -5.65,5.1 -11.06,7.65 -16.23,7.65 -5.71,0 -10.68,-2.66 -14.89,-7.95 -1.42,-1.84 -2.46,-4.08 -3.09,-6.72 -0.44,-1.8 -0.65,-3.61 -0.65,-5.41 0,-7.01 3.26,-14.13 9.75,-21.37 4.42,-4.02 8.39,-6.21 11.95,-6.55 v 0.02 z m -9.47,33.33 c 1.1,2.57 2,3.86 2.72,3.86 h 1.09 c 3.55,0 7.27,-2.56 11.18,-7.68 2.78,-4.18 4.18,-7.93 4.18,-11.2 0,-0.85 -0.09,-1.68 -0.27,-2.48 l -0.15,-0.65 c -1.98,-4.02 -3.67,-6.04 -5.05,-6.04 h -1.09 c -5.64,3.32 -9.59,8.42 -11.86,15.29 -0.62,1.55 -0.92,3.43 -0.92,5.65 0,1.01 0.06,2.1 0.19,3.26 v 0 z"
       id="path82" />
    <path
       class="cls-2"
       d="m 311.01,99.83 c 4.5,0.75 7.05,2.34 7.65,4.79 l 0.15,0.62 c 0.06,0.24 0.09,0.49 0.09,0.74 0,2.66 -3.29,5.75 -9.88,9.26 -1.8,1.2 -2.69,1.94 -2.69,2.22 v 0.02 l 0.06,0.3 c 5.92,2.58 9.39,5.99 10.4,10.22 0.22,0.93 0.34,1.84 0.34,2.73 0,4.86 -3.29,9.26 -9.88,13.19 -2.78,0.85 -4.73,1.28 -5.82,1.28 -6.9,-0.59 -10.78,-2.71 -11.64,-6.36 l -0.15,-0.65 c -0.09,-0.32 -0.12,-0.62 -0.12,-0.9 0,-1.52 1.2,-2.38 3.59,-2.59 l 1.92,0.3 c 5.2,0 8.51,-2.23 9.94,-6.69 -0.41,-1.71 -5.13,-2.77 -14.14,-3.17 -2.53,-1.51 -3.95,-2.89 -4.24,-4.14 l -0.4,-1.59 c -0.02,-0.11 -0.02,-0.21 -0.02,-0.32 0,-2.05 4.34,-5.02 13.03,-8.91 -4.69,0.84 -8.09,1.25 -10.22,1.25 -0.35,0 -0.67,0 -0.96,-0.03 -3.88,-0.49 -6.12,-2 -6.75,-4.53 -0.06,-0.29 -0.09,-0.56 -0.09,-0.81 0,-2.89 4,-4.65 12.01,-5.25 10.41,-0.64 16.37,-0.95 17.82,-0.95 v 0 z"
       id="path83" />
    <path
       class="cls-2"
       d="m 341.07,100.71 c 0.29,-0.04 0.57,-0.05 0.86,-0.05 1.86,0 3.78,0.93 5.76,2.78 4.66,0 9.18,3.18 13.53,9.56 l 1.61,3.82 c 0.35,1.45 0.52,2.93 0.52,4.42 0,6.21 -3.04,12.81 -9.13,19.8 -5.65,5.1 -11.07,7.65 -16.23,7.65 -5.71,0 -10.68,-2.66 -14.89,-7.95 -1.42,-1.84 -2.46,-4.08 -3.09,-6.72 -0.44,-1.8 -0.65,-3.61 -0.65,-5.41 0,-7.01 3.26,-14.13 9.75,-21.37 4.42,-4.02 8.39,-6.21 11.95,-6.55 v 0.02 z m -9.47,33.33 c 1.1,2.57 1.99,3.86 2.72,3.86 h 1.08 c 3.55,0 7.27,-2.56 11.18,-7.68 2.78,-4.18 4.18,-7.93 4.18,-11.2 0,-0.85 -0.09,-1.68 -0.27,-2.48 l -0.15,-0.65 c -1.98,-4.02 -3.67,-6.04 -5.05,-6.04 h -1.09 c -5.64,3.32 -9.59,8.42 -11.86,15.29 -0.62,1.55 -0.92,3.43 -0.92,5.65 0,1.01 0.06,2.1 0.19,3.26 v 0 z"
       id="path84" />
    <path
       class="cls-2"
       d="m 226.82,8.63 h 0.92 c 3.17,0.36 5.04,1.72 5.6,4.08 l 0.14,0.54 c 0.01,0.08 0.02,0.15 0.02,0.24 0,1.5 -2.52,5.51 -7.56,12.01 -7.1,11.57 -10.65,17.73 -10.65,18.46 v 0.05 c -1.71,4.52 -3.73,6.79 -6.07,6.79 h -0.64 c -2.52,0 -4.43,-1.54 -5.74,-4.62 -0.04,-0.11 -0.05,-0.24 -0.05,-0.4 0,-1.93 2.21,-6.79 6.64,-14.57 -4.14,-2.71 -7.28,-8.5 -9.43,-17.41 0.19,-1.15 0.82,-1.97 1.87,-2.44 h 1.85 c 2.32,0 4.66,2.91 7.02,8.72 1.27,2.18 2.05,3.27 2.32,3.27 3.24,-2.92 6.64,-7.19 10.17,-12.8 1.48,-1.25 2.67,-1.89 3.57,-1.89 z"
       id="path85" />
    <path
       class="cls-2"
       d="m 245.76,7 h 1.53 c 3.67,0.6 5.95,2.78 6.85,6.53 0.47,1.98 0.71,5.92 0.71,11.86 0,1.98 -0.02,4.17 -0.07,6.58 3.11,0.06 4.89,1.1 5.36,3.12 0.11,0.39 0.16,0.81 0.16,1.27 -0.04,2.86 -1.71,4.5 -5.01,4.92 0.01,0.38 0.03,0.74 0.03,1.1 0,3.81 -1.42,5.71 -4.25,5.71 -2.83,0 -5.14,-2.27 -6.81,-6.79 -2.39,0.33 -6.67,0.59 -12.81,0.79 -0.94,2.37 -2.18,3.54 -3.75,3.54 h -0.64 c -1.92,-0.25 -3.04,-1.07 -3.38,-2.44 l -0.19,-0.81 c 0.97,-6.63 5.55,-16.14 13.77,-28.58 3.5,-4.52 6.35,-6.79 8.53,-6.79 h -0.02 z m -10.1,25.83 0.05,0.28 c 2.66,-0.36 5.45,-0.7 8.37,-1.05 0.26,-0.31 0.4,-1.69 0.4,-4.15 0,-2 -0.09,-4.72 -0.26,-8.14 -2.96,3.39 -5.81,7.74 -8.56,13.05 v 0 z"
       id="path86" />
    <path
       class="cls-2"
       d="m 274.42,8 c 2.38,0.48 3.75,1.48 4.12,2.98 l 0.19,0.81 c 0.07,0.28 0.1,0.66 0.1,1.16 0,2.13 -0.61,6.34 -1.82,12.61 -1.5,7.77 -2.32,12.2 -2.48,13.29 6.46,-0.59 10.65,-0.89 12.57,-0.89 2.47,0 3.89,0.81 4.28,2.44 l 0.08,0.28 c -0.14,3.66 -6.56,7.01 -19.26,10.07 -1.02,0.19 -1.61,0.28 -1.77,0.28 -4.05,-0.59 -6.4,-2.23 -7.06,-4.9 l -0.19,-0.81 c -0.17,-0.72 -0.26,-1.66 -0.26,-2.82 0,-2.96 0.59,-7.28 1.77,-12.96 1.62,-7.92 3.16,-13.48 4.6,-16.71 1.45,-3.22 3.16,-4.85 5.13,-4.86 v 0.02 z"
       id="path87" />
    <path
       class="cls-2"
       d="m 305.6,8 c 2.38,0.48 3.75,1.48 4.12,2.98 l 0.19,0.81 c 0.08,0.28 0.1,0.66 0.1,1.16 0,2.13 -0.61,6.34 -1.82,12.61 -1.5,7.77 -2.32,12.2 -2.48,13.29 6.46,-0.59 10.65,-0.89 12.57,-0.89 2.47,0 3.89,0.81 4.28,2.44 l 0.08,0.28 c -0.14,3.66 -6.56,7.01 -19.26,10.07 -1.02,0.19 -1.61,0.28 -1.77,0.28 -4.05,-0.59 -6.4,-2.23 -7.06,-4.9 l -0.19,-0.81 c -0.17,-0.72 -0.26,-1.66 -0.26,-2.82 0,-2.96 0.59,-7.28 1.77,-12.96 1.62,-7.92 3.15,-13.48 4.6,-16.71 1.45,-3.22 3.16,-4.85 5.13,-4.86 v 0.02 z"
       id="path88" />
    <path
       class="cls-2"
       d="m 347.58,7 h 1.54 c 3.67,0.6 5.95,2.78 6.85,6.53 0.47,1.98 0.71,5.92 0.71,11.86 0,1.98 -0.02,4.17 -0.08,6.58 3.11,0.06 4.89,1.1 5.37,3.12 0.11,0.39 0.16,0.81 0.16,1.27 -0.04,2.86 -1.71,4.5 -5.01,4.92 0.01,0.38 0.02,0.74 0.02,1.1 0,3.81 -1.42,5.71 -4.25,5.71 -2.83,0 -5.14,-2.27 -6.81,-6.79 -2.39,0.33 -6.67,0.59 -12.81,0.79 -0.94,2.37 -2.18,3.54 -3.75,3.54 h -0.64 c -1.92,-0.25 -3.04,-1.07 -3.38,-2.44 l -0.19,-0.81 c 0.97,-6.63 5.55,-16.14 13.77,-28.58 3.51,-4.52 6.35,-6.79 8.53,-6.79 h -0.02 z m -10.09,25.83 0.05,0.28 c 2.66,-0.36 5.45,-0.7 8.37,-1.05 0.26,-0.31 0.4,-1.69 0.4,-4.15 0,-2 -0.09,-4.72 -0.26,-8.14 -2.96,3.39 -5.81,7.74 -8.56,13.05 v 0 z"
       id="path89" />
    <path
       class="cls-2"
       d="m 226.84,61.73 c 1.56,0 2.77,0.9 3.63,2.71 0.01,0.1 0.02,0.2 0.02,0.31 0,2.67 -5.66,12.34 -16.98,28.98 -1.3,0.88 -2.53,1.37 -3.73,1.48 -2.96,0 -5.05,-1.64 -6.27,-4.93 l -0.05,-0.23 c -0.59,-2.28 -1.52,-10.97 -2.79,-26.09 0.67,-1.15 1.5,-1.73 2.49,-1.73 h 0.57 c 2.47,0 4.48,2.13 6.05,6.39 l 1.48,9.37 7.66,-10.33 c 3.36,-3.93 6,-5.91 7.91,-5.91 v 0 z"
       id="path90" />
    <path
       class="cls-2"
       d="m 244.29,56.57 h 1.46 c 3.49,0.55 5.66,2.52 6.52,5.91 0.45,1.79 0.69,5.36 0.69,10.73 0,1.79 -0.02,3.77 -0.07,5.95 2.96,0.06 4.66,1 5.11,2.83 0.1,0.35 0.15,0.73 0.15,1.14 -0.04,2.59 -1.63,4.07 -4.79,4.45 0.01,0.34 0.03,0.66 0.03,0.99 0,3.44 -1.35,5.17 -4.05,5.17 -2.7,0 -4.9,-2.04 -6.5,-6.14 -2.28,0.3 -6.36,0.54 -12.22,0.71 -0.89,2.14 -2.08,3.21 -3.58,3.21 h -0.6 c -1.83,-0.22 -2.91,-0.96 -3.23,-2.22 l -0.17,-0.74 c 0.92,-5.99 5.3,-14.62 13.12,-25.86 3.34,-4.1 6.05,-6.14 8.13,-6.14 h 0.01 z m -9.63,23.37 0.05,0.25 c 2.53,-0.33 5.2,-0.64 7.98,-0.95 0.25,-0.28 0.37,-1.53 0.37,-3.76 0,-1.82 -0.09,-4.27 -0.25,-7.36 -2.82,3.07 -5.54,7 -8.16,11.81 v 0 z"
       id="path91" />
    <path
       class="cls-2"
       d="m 293.88,57.28 c 3.88,0.6 6.14,2.17 6.77,4.69 0.09,0.32 0.12,0.9 0.12,1.73 0,3.24 -0.63,10.38 -1.91,21.4 0.1,1.05 0.15,2.03 0.15,2.93 0,4.93 -1.53,7.4 -4.59,7.4 h -0.28 c -2.37,0 -4.14,-1.56 -5.31,-4.68 -0.06,-1 -0.1,-2.18 -0.1,-3.54 0,-2.92 0.42,-7.85 1.29,-14.78 -3.79,7.46 -6.95,11.37 -9.47,11.71 -0.24,0.04 -0.47,0.06 -0.71,0.06 -2.2,0 -4.05,-1.5 -5.56,-4.51 -0.77,-2.45 -1.37,-4.17 -1.81,-5.15 l -4.79,19.67 c -1.02,0.65 -1.91,0.97 -2.67,0.97 -1.81,0 -3.19,-1.14 -4.13,-3.43 -0.14,-0.55 -0.2,-1.24 -0.2,-2.09 0,-4.44 1.95,-12.94 5.85,-25.47 1.5,-3.12 3.36,-4.68 5.56,-4.68 h 0.6 c 3.53,0 6.15,3.37 7.86,10.11 0.19,0 1.72,-2.05 4.61,-6.16 3.55,-3.98 6.46,-6.03 8.72,-6.16 h -0.01 z"
       id="path92" />
    <path
       class="cls-2"
       d="m 319.74,59.13 c 0.24,-0.02 0.47,-0.04 0.71,-0.04 1.51,0 3.07,0.71 4.69,2.16 3.79,0 7.46,2.45 11.01,7.38 l 1.31,2.96 c 0.29,1.13 0.42,2.27 0.42,3.42 0,4.8 -2.48,9.9 -7.44,15.29 -4.6,3.93 -9.01,5.91 -13.2,5.91 -4.65,0 -8.69,-2.04 -12.12,-6.14 -1.16,-1.41 -2,-3.16 -2.52,-5.19 -0.35,-1.39 -0.52,-2.78 -0.52,-4.17 0,-5.41 2.64,-10.91 7.93,-16.5 3.59,-3.11 6.84,-4.8 9.73,-5.06 v -0.03 z m -7.71,25.74 c 0.89,1.98 1.64,2.97 2.22,2.97 h 0.89 c 2.89,0 5.92,-1.98 9.09,-5.92 2.27,-3.23 3.41,-6.11 3.41,-8.64 0,-0.66 -0.08,-1.3 -0.22,-1.92 l -0.12,-0.5 c -1.61,-3.11 -2.98,-4.66 -4.1,-4.66 h -0.89 c -4.59,2.56 -7.8,6.5 -9.65,11.81 -0.5,1.19 -0.76,2.65 -0.76,4.37 0,0.79 0.05,1.63 0.15,2.5 v 0 z"
       id="path93" />
    <path
       class="cls-2"
       d="m 347.57,57.64 c 1.88,-0.39 3.62,-0.59 5.21,-0.59 3.88,0 6.95,1.16 9.19,3.51 1.2,1.44 1.78,2.75 1.78,3.94 0,0.38 -0.06,0.75 -0.18,1.11 -0.54,1.48 -1.85,2.26 -3.93,2.34 -0.71,-0.05 -1.52,-0.35 -2.45,-0.88 -0.92,-0.52 -2.19,-0.93 -3.83,-1.19 -0.27,-0.04 -0.55,-0.06 -0.86,-0.06 -1.41,0 -2.96,0.54 -4.64,1.63 8.92,5.96 13.87,10.88 14.87,14.77 0.2,0.8 0.3,1.58 0.3,2.34 0,4 -2.89,7.24 -8.69,9.72 -1.11,0.49 -2.68,0.83 -4.74,0.99 -5.68,0 -9.4,-1.57 -11.19,-4.69 l -0.12,-0.49 c -0.04,-0.14 -0.05,-0.28 -0.05,-0.42 0,-1.21 0.86,-1.82 2.59,-1.82 0.21,0 0.45,0 0.71,0.02 0.48,0.04 0.95,0.06 1.44,0.06 1.81,0 3.78,-0.26 5.9,-0.78 2.68,-0.65 4.03,-2 4.03,-4.1 0,-0.2 -0.02,-0.4 -0.07,-0.61 l -0.2,-0.74 c -0.3,-1.21 -4.15,-4.41 -11.54,-9.6 -1.52,-1.35 -2.52,-2.9 -2.97,-4.68 -0.14,-0.54 -0.2,-1.05 -0.2,-1.57 0,-4.13 3.21,-6.89 9.63,-8.24 z"
       id="path94" />
    <g
       id="path97"
       class="cls-1" />
  </g>
</svg>
